<svg width="219" height="107" viewBox="0 0 219 107" fill="none" xmlns="http://www.w3.org/2000/svg">
<circle cx="1" cy="106" r="1" transform="rotate(-90 1 106)" fill="#E2E2E2"/>
<circle cx="1" cy="99" r="1" transform="rotate(-90 1 99)" fill="#E2E2E2"/>
<circle cx="1" cy="92" r="1" transform="rotate(-90 1 92)" fill="#E2E2E2"/>
<circle cx="1" cy="85" r="1" transform="rotate(-90 1 85)" fill="#E2E2E2"/>
<circle cx="1" cy="78" r="1" transform="rotate(-90 1 78)" fill="#E2E2E2"/>
<circle cx="1" cy="71" r="1" transform="rotate(-90 1 71)" fill="#E2E2E2"/>
<circle cx="1" cy="64" r="1" transform="rotate(-90 1 64)" fill="#E2E2E2"/>
<circle cx="1" cy="57" r="1" transform="rotate(-90 1 57)" fill="#E2E2E2"/>
<circle cx="1" cy="50" r="1" transform="rotate(-90 1 50)" fill="#E2E2E2"/>
<circle cx="1" cy="43" r="1" transform="rotate(-90 1 43)" fill="#E2E2E2"/>
<circle cx="1" cy="36" r="1" transform="rotate(-90 1 36)" fill="#E2E2E2"/>
<circle cx="1" cy="29" r="1" transform="rotate(-90 1 29)" fill="#E2E2E2"/>
<circle cx="1" cy="22" r="1" transform="rotate(-90 1 22)" fill="#E2E2E2"/>
<circle cx="1" cy="15" r="1" transform="rotate(-90 1 15)" fill="#E2E2E2"/>
<circle cx="1" cy="8" r="1" transform="rotate(-90 1 8)" fill="#E2E2E2"/>
<circle cx="1" cy="1" r="1" transform="rotate(-90 1 1)" fill="#E2E2E2"/>
<circle cx="8" cy="106" r="1" transform="rotate(-90 8 106)" fill="#E2E2E2"/>
<circle cx="8" cy="99" r="1" transform="rotate(-90 8 99)" fill="#E2E2E2"/>
<circle cx="8" cy="92" r="1" transform="rotate(-90 8 92)" fill="#E2E2E2"/>
<circle cx="8" cy="85" r="1" transform="rotate(-90 8 85)" fill="#E2E2E2"/>
<circle cx="8" cy="78" r="1" transform="rotate(-90 8 78)" fill="#E2E2E2"/>
<circle cx="8" cy="71" r="1" transform="rotate(-90 8 71)" fill="#E2E2E2"/>
<circle cx="8" cy="64" r="1" transform="rotate(-90 8 64)" fill="#E2E2E2"/>
<circle cx="8" cy="57" r="1" transform="rotate(-90 8 57)" fill="#E2E2E2"/>
<circle cx="8" cy="50" r="1" transform="rotate(-90 8 50)" fill="#E2E2E2"/>
<circle cx="8" cy="43" r="1" transform="rotate(-90 8 43)" fill="#E2E2E2"/>
<circle cx="8" cy="36" r="1" transform="rotate(-90 8 36)" fill="#E2E2E2"/>
<circle cx="8" cy="29" r="1" transform="rotate(-90 8 29)" fill="#E2E2E2"/>
<circle cx="8" cy="22" r="1" transform="rotate(-90 8 22)" fill="#E2E2E2"/>
<circle cx="8" cy="15" r="1" transform="rotate(-90 8 15)" fill="#E2E2E2"/>
<circle cx="8" cy="8" r="1" transform="rotate(-90 8 8)" fill="#E2E2E2"/>
<circle cx="8" cy="1" r="1" transform="rotate(-90 8 1)" fill="#E2E2E2"/>
<circle cx="15" cy="106" r="1" transform="rotate(-90 15 106)" fill="#E2E2E2"/>
<circle cx="15" cy="99" r="1" transform="rotate(-90 15 99)" fill="#E2E2E2"/>
<circle cx="15" cy="92" r="1" transform="rotate(-90 15 92)" fill="#E2E2E2"/>
<circle cx="15" cy="85" r="1" transform="rotate(-90 15 85)" fill="#E2E2E2"/>
<circle cx="15" cy="78" r="1" transform="rotate(-90 15 78)" fill="#E2E2E2"/>
<circle cx="15" cy="71" r="1" transform="rotate(-90 15 71)" fill="#E2E2E2"/>
<circle cx="15" cy="64" r="1" transform="rotate(-90 15 64)" fill="#E2E2E2"/>
<circle cx="15" cy="57" r="1" transform="rotate(-90 15 57)" fill="#E2E2E2"/>
<circle cx="15" cy="50" r="1" transform="rotate(-90 15 50)" fill="#E2E2E2"/>
<circle cx="15" cy="43" r="1" transform="rotate(-90 15 43)" fill="#E2E2E2"/>
<circle cx="15" cy="36" r="1" transform="rotate(-90 15 36)" fill="#E2E2E2"/>
<circle cx="15" cy="29" r="1" transform="rotate(-90 15 29)" fill="#E2E2E2"/>
<circle cx="15" cy="22" r="1" transform="rotate(-90 15 22)" fill="#E2E2E2"/>
<circle cx="15" cy="15" r="1" transform="rotate(-90 15 15)" fill="#E2E2E2"/>
<circle cx="15" cy="8" r="1" transform="rotate(-90 15 8)" fill="#E2E2E2"/>
<circle cx="15" cy="1" r="1" transform="rotate(-90 15 1)" fill="#E2E2E2"/>
<circle cx="22" cy="106" r="1" transform="rotate(-90 22 106)" fill="#E2E2E2"/>
<circle cx="22" cy="99" r="1" transform="rotate(-90 22 99)" fill="#E2E2E2"/>
<circle cx="22" cy="92" r="1" transform="rotate(-90 22 92)" fill="#E2E2E2"/>
<circle cx="22" cy="85" r="1" transform="rotate(-90 22 85)" fill="#E2E2E2"/>
<circle cx="22" cy="78" r="1" transform="rotate(-90 22 78)" fill="#E2E2E2"/>
<circle cx="22" cy="71" r="1" transform="rotate(-90 22 71)" fill="#E2E2E2"/>
<circle cx="22" cy="64" r="1" transform="rotate(-90 22 64)" fill="#E2E2E2"/>
<circle cx="22" cy="57" r="1" transform="rotate(-90 22 57)" fill="#E2E2E2"/>
<circle cx="22" cy="50" r="1" transform="rotate(-90 22 50)" fill="#E2E2E2"/>
<circle cx="22" cy="43" r="1" transform="rotate(-90 22 43)" fill="#E2E2E2"/>
<circle cx="22" cy="36" r="1" transform="rotate(-90 22 36)" fill="#E2E2E2"/>
<circle cx="22" cy="29" r="1" transform="rotate(-90 22 29)" fill="#E2E2E2"/>
<circle cx="22" cy="22" r="1" transform="rotate(-90 22 22)" fill="#E2E2E2"/>
<circle cx="22" cy="15" r="1" transform="rotate(-90 22 15)" fill="#E2E2E2"/>
<circle cx="22" cy="8" r="1" transform="rotate(-90 22 8)" fill="#E2E2E2"/>
<circle cx="22" cy="1" r="1" transform="rotate(-90 22 1)" fill="#E2E2E2"/>
<circle cx="29" cy="106" r="1" transform="rotate(-90 29 106)" fill="#E2E2E2"/>
<circle cx="29" cy="99" r="1" transform="rotate(-90 29 99)" fill="#E2E2E2"/>
<circle cx="29" cy="92" r="1" transform="rotate(-90 29 92)" fill="#E2E2E2"/>
<circle cx="29" cy="85" r="1" transform="rotate(-90 29 85)" fill="#E2E2E2"/>
<circle cx="29" cy="78" r="1" transform="rotate(-90 29 78)" fill="#E2E2E2"/>
<circle cx="29" cy="71" r="1" transform="rotate(-90 29 71)" fill="#E2E2E2"/>
<circle cx="29" cy="64" r="1" transform="rotate(-90 29 64)" fill="#E2E2E2"/>
<circle cx="29" cy="57" r="1" transform="rotate(-90 29 57)" fill="#E2E2E2"/>
<circle cx="29" cy="50" r="1" transform="rotate(-90 29 50)" fill="#E2E2E2"/>
<circle cx="29" cy="43" r="1" transform="rotate(-90 29 43)" fill="#E2E2E2"/>
<circle cx="29" cy="36" r="1" transform="rotate(-90 29 36)" fill="#E2E2E2"/>
<circle cx="29" cy="29" r="1" transform="rotate(-90 29 29)" fill="#E2E2E2"/>
<circle cx="29" cy="22" r="1" transform="rotate(-90 29 22)" fill="#E2E2E2"/>
<circle cx="29" cy="15" r="1" transform="rotate(-90 29 15)" fill="#E2E2E2"/>
<circle cx="29" cy="8" r="1" transform="rotate(-90 29 8)" fill="#E2E2E2"/>
<circle cx="29" cy="1" r="1" transform="rotate(-90 29 1)" fill="#E2E2E2"/>
<circle cx="36" cy="106" r="1" transform="rotate(-90 36 106)" fill="#E2E2E2"/>
<circle cx="36" cy="99" r="1" transform="rotate(-90 36 99)" fill="#E2E2E2"/>
<circle cx="36" cy="92" r="1" transform="rotate(-90 36 92)" fill="#E2E2E2"/>
<circle cx="36" cy="85" r="1" transform="rotate(-90 36 85)" fill="#E2E2E2"/>
<circle cx="36" cy="78" r="1" transform="rotate(-90 36 78)" fill="#E2E2E2"/>
<circle cx="36" cy="71" r="1" transform="rotate(-90 36 71)" fill="#E2E2E2"/>
<circle cx="36" cy="64" r="1" transform="rotate(-90 36 64)" fill="#E2E2E2"/>
<circle cx="36" cy="57" r="1" transform="rotate(-90 36 57)" fill="#E2E2E2"/>
<circle cx="36" cy="50" r="1" transform="rotate(-90 36 50)" fill="#E2E2E2"/>
<circle cx="36" cy="43" r="1" transform="rotate(-90 36 43)" fill="#E2E2E2"/>
<circle cx="36" cy="36" r="1" transform="rotate(-90 36 36)" fill="#E2E2E2"/>
<circle cx="36" cy="29" r="1" transform="rotate(-90 36 29)" fill="#E2E2E2"/>
<circle cx="36" cy="22" r="1" transform="rotate(-90 36 22)" fill="#E2E2E2"/>
<circle cx="36" cy="15" r="1" transform="rotate(-90 36 15)" fill="#E2E2E2"/>
<circle cx="36" cy="8" r="1" transform="rotate(-90 36 8)" fill="#E2E2E2"/>
<circle cx="36" cy="1" r="1" transform="rotate(-90 36 1)" fill="#E2E2E2"/>
<circle cx="43" cy="106" r="1" transform="rotate(-90 43 106)" fill="#E2E2E2"/>
<circle cx="43" cy="99" r="1" transform="rotate(-90 43 99)" fill="#E2E2E2"/>
<circle cx="43" cy="92" r="1" transform="rotate(-90 43 92)" fill="#E2E2E2"/>
<circle cx="43" cy="85" r="1" transform="rotate(-90 43 85)" fill="#E2E2E2"/>
<circle cx="43" cy="78" r="1" transform="rotate(-90 43 78)" fill="#E2E2E2"/>
<circle cx="43" cy="71" r="1" transform="rotate(-90 43 71)" fill="#E2E2E2"/>
<circle cx="43" cy="64" r="1" transform="rotate(-90 43 64)" fill="#E2E2E2"/>
<circle cx="43" cy="57" r="1" transform="rotate(-90 43 57)" fill="#E2E2E2"/>
<circle cx="43" cy="50" r="1" transform="rotate(-90 43 50)" fill="#E2E2E2"/>
<circle cx="43" cy="43" r="1" transform="rotate(-90 43 43)" fill="#E2E2E2"/>
<circle cx="43" cy="36" r="1" transform="rotate(-90 43 36)" fill="#E2E2E2"/>
<circle cx="43" cy="29" r="1" transform="rotate(-90 43 29)" fill="#E2E2E2"/>
<circle cx="43" cy="22" r="1" transform="rotate(-90 43 22)" fill="#E2E2E2"/>
<circle cx="43" cy="15" r="1" transform="rotate(-90 43 15)" fill="#E2E2E2"/>
<circle cx="43" cy="8" r="1" transform="rotate(-90 43 8)" fill="#E2E2E2"/>
<circle cx="43" cy="1" r="1" transform="rotate(-90 43 1)" fill="#E2E2E2"/>
<circle cx="50" cy="106" r="1" transform="rotate(-90 50 106)" fill="#E2E2E2"/>
<circle cx="50" cy="99" r="1" transform="rotate(-90 50 99)" fill="#E2E2E2"/>
<circle cx="50" cy="92" r="1" transform="rotate(-90 50 92)" fill="#E2E2E2"/>
<circle cx="50" cy="85" r="1" transform="rotate(-90 50 85)" fill="#E2E2E2"/>
<circle cx="50" cy="78" r="1" transform="rotate(-90 50 78)" fill="#E2E2E2"/>
<circle cx="50" cy="71" r="1" transform="rotate(-90 50 71)" fill="#E2E2E2"/>
<circle cx="50" cy="64" r="1" transform="rotate(-90 50 64)" fill="#E2E2E2"/>
<circle cx="50" cy="57" r="1" transform="rotate(-90 50 57)" fill="#E2E2E2"/>
<circle cx="50" cy="50" r="1" transform="rotate(-90 50 50)" fill="#E2E2E2"/>
<circle cx="50" cy="43" r="1" transform="rotate(-90 50 43)" fill="#E2E2E2"/>
<circle cx="50" cy="36" r="1" transform="rotate(-90 50 36)" fill="#E2E2E2"/>
<circle cx="50" cy="29" r="1" transform="rotate(-90 50 29)" fill="#E2E2E2"/>
<circle cx="50" cy="22" r="1" transform="rotate(-90 50 22)" fill="#E2E2E2"/>
<circle cx="50" cy="15" r="1" transform="rotate(-90 50 15)" fill="#E2E2E2"/>
<circle cx="50" cy="8" r="1" transform="rotate(-90 50 8)" fill="#E2E2E2"/>
<circle cx="50" cy="1" r="1" transform="rotate(-90 50 1)" fill="#E2E2E2"/>
<circle cx="57" cy="106" r="1" transform="rotate(-90 57 106)" fill="#E2E2E2"/>
<circle cx="57" cy="99" r="1" transform="rotate(-90 57 99)" fill="#E2E2E2"/>
<circle cx="57" cy="92" r="1" transform="rotate(-90 57 92)" fill="#E2E2E2"/>
<circle cx="57" cy="85" r="1" transform="rotate(-90 57 85)" fill="#E2E2E2"/>
<circle cx="57" cy="78" r="1" transform="rotate(-90 57 78)" fill="#E2E2E2"/>
<circle cx="57" cy="71" r="1" transform="rotate(-90 57 71)" fill="#E2E2E2"/>
<circle cx="57" cy="64" r="1" transform="rotate(-90 57 64)" fill="#E2E2E2"/>
<circle cx="57" cy="57" r="1" transform="rotate(-90 57 57)" fill="#E2E2E2"/>
<circle cx="57" cy="50" r="1" transform="rotate(-90 57 50)" fill="#E2E2E2"/>
<circle cx="57" cy="43" r="1" transform="rotate(-90 57 43)" fill="#E2E2E2"/>
<circle cx="57" cy="36" r="1" transform="rotate(-90 57 36)" fill="#E2E2E2"/>
<circle cx="57" cy="29" r="1" transform="rotate(-90 57 29)" fill="#E2E2E2"/>
<circle cx="57" cy="22" r="1" transform="rotate(-90 57 22)" fill="#E2E2E2"/>
<circle cx="57" cy="15" r="1" transform="rotate(-90 57 15)" fill="#E2E2E2"/>
<circle cx="57" cy="8" r="1" transform="rotate(-90 57 8)" fill="#E2E2E2"/>
<circle cx="57" cy="1" r="1" transform="rotate(-90 57 1)" fill="#E2E2E2"/>
<circle cx="64" cy="106" r="1" transform="rotate(-90 64 106)" fill="#E2E2E2"/>
<circle cx="64" cy="99" r="1" transform="rotate(-90 64 99)" fill="#E2E2E2"/>
<circle cx="64" cy="92" r="1" transform="rotate(-90 64 92)" fill="#E2E2E2"/>
<circle cx="64" cy="85" r="1" transform="rotate(-90 64 85)" fill="#E2E2E2"/>
<circle cx="64" cy="78" r="1" transform="rotate(-90 64 78)" fill="#E2E2E2"/>
<circle cx="64" cy="71" r="1" transform="rotate(-90 64 71)" fill="#E2E2E2"/>
<circle cx="64" cy="64" r="1" transform="rotate(-90 64 64)" fill="#E2E2E2"/>
<circle cx="64" cy="57" r="1" transform="rotate(-90 64 57)" fill="#E2E2E2"/>
<circle cx="64" cy="50" r="1" transform="rotate(-90 64 50)" fill="#E2E2E2"/>
<circle cx="64" cy="43" r="1" transform="rotate(-90 64 43)" fill="#E2E2E2"/>
<circle cx="64" cy="36" r="1" transform="rotate(-90 64 36)" fill="#E2E2E2"/>
<circle cx="64" cy="29" r="1" transform="rotate(-90 64 29)" fill="#E2E2E2"/>
<circle cx="64" cy="22" r="1" transform="rotate(-90 64 22)" fill="#E2E2E2"/>
<circle cx="64" cy="15" r="1" transform="rotate(-90 64 15)" fill="#E2E2E2"/>
<circle cx="64" cy="8" r="1" transform="rotate(-90 64 8)" fill="#E2E2E2"/>
<circle cx="64" cy="1" r="1" transform="rotate(-90 64 1)" fill="#E2E2E2"/>
<circle cx="71" cy="106" r="1" transform="rotate(-90 71 106)" fill="#E2E2E2"/>
<circle cx="71" cy="99" r="1" transform="rotate(-90 71 99)" fill="#E2E2E2"/>
<circle cx="71" cy="92" r="1" transform="rotate(-90 71 92)" fill="#E2E2E2"/>
<circle cx="71" cy="85" r="1" transform="rotate(-90 71 85)" fill="#E2E2E2"/>
<circle cx="71" cy="78" r="1" transform="rotate(-90 71 78)" fill="#E2E2E2"/>
<circle cx="71" cy="71" r="1" transform="rotate(-90 71 71)" fill="#E2E2E2"/>
<circle cx="71" cy="64" r="1" transform="rotate(-90 71 64)" fill="#E2E2E2"/>
<circle cx="71" cy="57" r="1" transform="rotate(-90 71 57)" fill="#E2E2E2"/>
<circle cx="71" cy="50" r="1" transform="rotate(-90 71 50)" fill="#E2E2E2"/>
<circle cx="71" cy="43" r="1" transform="rotate(-90 71 43)" fill="#E2E2E2"/>
<circle cx="71" cy="36" r="1" transform="rotate(-90 71 36)" fill="#E2E2E2"/>
<circle cx="71" cy="29" r="1" transform="rotate(-90 71 29)" fill="#E2E2E2"/>
<circle cx="71" cy="22" r="1" transform="rotate(-90 71 22)" fill="#E2E2E2"/>
<circle cx="71" cy="15" r="1" transform="rotate(-90 71 15)" fill="#E2E2E2"/>
<circle cx="71" cy="8" r="1" transform="rotate(-90 71 8)" fill="#E2E2E2"/>
<circle cx="71" cy="1" r="1" transform="rotate(-90 71 1)" fill="#E2E2E2"/>
<circle cx="78" cy="106" r="1" transform="rotate(-90 78 106)" fill="#E2E2E2"/>
<circle cx="78" cy="99" r="1" transform="rotate(-90 78 99)" fill="#E2E2E2"/>
<circle cx="78" cy="92" r="1" transform="rotate(-90 78 92)" fill="#E2E2E2"/>
<circle cx="78" cy="85" r="1" transform="rotate(-90 78 85)" fill="#E2E2E2"/>
<circle cx="78" cy="78" r="1" transform="rotate(-90 78 78)" fill="#E2E2E2"/>
<circle cx="78" cy="71" r="1" transform="rotate(-90 78 71)" fill="#E2E2E2"/>
<circle cx="78" cy="64" r="1" transform="rotate(-90 78 64)" fill="#E2E2E2"/>
<circle cx="78" cy="57" r="1" transform="rotate(-90 78 57)" fill="#E2E2E2"/>
<circle cx="78" cy="50" r="1" transform="rotate(-90 78 50)" fill="#E2E2E2"/>
<circle cx="78" cy="43" r="1" transform="rotate(-90 78 43)" fill="#E2E2E2"/>
<circle cx="78" cy="36" r="1" transform="rotate(-90 78 36)" fill="#E2E2E2"/>
<circle cx="78" cy="29" r="1" transform="rotate(-90 78 29)" fill="#E2E2E2"/>
<circle cx="78" cy="22" r="1" transform="rotate(-90 78 22)" fill="#E2E2E2"/>
<circle cx="78" cy="15" r="1" transform="rotate(-90 78 15)" fill="#E2E2E2"/>
<circle cx="78" cy="8" r="1" transform="rotate(-90 78 8)" fill="#E2E2E2"/>
<circle cx="78" cy="1" r="1" transform="rotate(-90 78 1)" fill="#E2E2E2"/>
<circle cx="85" cy="106" r="1" transform="rotate(-90 85 106)" fill="#E2E2E2"/>
<circle cx="85" cy="99" r="1" transform="rotate(-90 85 99)" fill="#E2E2E2"/>
<circle cx="85" cy="92" r="1" transform="rotate(-90 85 92)" fill="#E2E2E2"/>
<circle cx="85" cy="85" r="1" transform="rotate(-90 85 85)" fill="#E2E2E2"/>
<circle cx="85" cy="78" r="1" transform="rotate(-90 85 78)" fill="#E2E2E2"/>
<circle cx="85" cy="71" r="1" transform="rotate(-90 85 71)" fill="#E2E2E2"/>
<circle cx="85" cy="64" r="1" transform="rotate(-90 85 64)" fill="#E2E2E2"/>
<circle cx="85" cy="57" r="1" transform="rotate(-90 85 57)" fill="#E2E2E2"/>
<circle cx="85" cy="50" r="1" transform="rotate(-90 85 50)" fill="#E2E2E2"/>
<circle cx="85" cy="43" r="1" transform="rotate(-90 85 43)" fill="#E2E2E2"/>
<circle cx="85" cy="36" r="1" transform="rotate(-90 85 36)" fill="#E2E2E2"/>
<circle cx="85" cy="29" r="1" transform="rotate(-90 85 29)" fill="#E2E2E2"/>
<circle cx="85" cy="22" r="1" transform="rotate(-90 85 22)" fill="#E2E2E2"/>
<circle cx="85" cy="15" r="1" transform="rotate(-90 85 15)" fill="#E2E2E2"/>
<circle cx="85" cy="8" r="1" transform="rotate(-90 85 8)" fill="#E2E2E2"/>
<circle cx="85" cy="1" r="1" transform="rotate(-90 85 1)" fill="#E2E2E2"/>
<circle cx="92" cy="106" r="1" transform="rotate(-90 92 106)" fill="#E2E2E2"/>
<circle cx="92" cy="99" r="1" transform="rotate(-90 92 99)" fill="#E2E2E2"/>
<circle cx="92" cy="92" r="1" transform="rotate(-90 92 92)" fill="#E2E2E2"/>
<circle cx="92" cy="85" r="1" transform="rotate(-90 92 85)" fill="#E2E2E2"/>
<circle cx="92" cy="78" r="1" transform="rotate(-90 92 78)" fill="#E2E2E2"/>
<circle cx="92" cy="71" r="1" transform="rotate(-90 92 71)" fill="#E2E2E2"/>
<circle cx="92" cy="64" r="1" transform="rotate(-90 92 64)" fill="#E2E2E2"/>
<circle cx="92" cy="57" r="1" transform="rotate(-90 92 57)" fill="#E2E2E2"/>
<circle cx="92" cy="50" r="1" transform="rotate(-90 92 50)" fill="#E2E2E2"/>
<circle cx="92" cy="43" r="1" transform="rotate(-90 92 43)" fill="#E2E2E2"/>
<circle cx="92" cy="36" r="1" transform="rotate(-90 92 36)" fill="#E2E2E2"/>
<circle cx="92" cy="29" r="1" transform="rotate(-90 92 29)" fill="#E2E2E2"/>
<circle cx="92" cy="22" r="1" transform="rotate(-90 92 22)" fill="#E2E2E2"/>
<circle cx="92" cy="15" r="1" transform="rotate(-90 92 15)" fill="#E2E2E2"/>
<circle cx="92" cy="8" r="1" transform="rotate(-90 92 8)" fill="#E2E2E2"/>
<circle cx="92" cy="1" r="1" transform="rotate(-90 92 1)" fill="#E2E2E2"/>
<circle cx="99" cy="106" r="1" transform="rotate(-90 99 106)" fill="#E2E2E2"/>
<circle cx="99" cy="99" r="1" transform="rotate(-90 99 99)" fill="#E2E2E2"/>
<circle cx="99" cy="92" r="1" transform="rotate(-90 99 92)" fill="#E2E2E2"/>
<circle cx="99" cy="85" r="1" transform="rotate(-90 99 85)" fill="#E2E2E2"/>
<circle cx="99" cy="78" r="1" transform="rotate(-90 99 78)" fill="#E2E2E2"/>
<circle cx="99" cy="71" r="1" transform="rotate(-90 99 71)" fill="#E2E2E2"/>
<circle cx="99" cy="64" r="1" transform="rotate(-90 99 64)" fill="#E2E2E2"/>
<circle cx="99" cy="57" r="1" transform="rotate(-90 99 57)" fill="#E2E2E2"/>
<circle cx="99" cy="50" r="1" transform="rotate(-90 99 50)" fill="#E2E2E2"/>
<circle cx="99" cy="43" r="1" transform="rotate(-90 99 43)" fill="#E2E2E2"/>
<circle cx="99" cy="36" r="1" transform="rotate(-90 99 36)" fill="#E2E2E2"/>
<circle cx="99" cy="29" r="1" transform="rotate(-90 99 29)" fill="#E2E2E2"/>
<circle cx="99" cy="22" r="1" transform="rotate(-90 99 22)" fill="#E2E2E2"/>
<circle cx="99" cy="15" r="1" transform="rotate(-90 99 15)" fill="#E2E2E2"/>
<circle cx="99" cy="8" r="1" transform="rotate(-90 99 8)" fill="#E2E2E2"/>
<circle cx="99" cy="1" r="1" transform="rotate(-90 99 1)" fill="#E2E2E2"/>
<circle cx="106" cy="106" r="1" transform="rotate(-90 106 106)" fill="#E2E2E2"/>
<circle cx="106" cy="99" r="1" transform="rotate(-90 106 99)" fill="#E2E2E2"/>
<circle cx="106" cy="92" r="1" transform="rotate(-90 106 92)" fill="#E2E2E2"/>
<circle cx="106" cy="85" r="1" transform="rotate(-90 106 85)" fill="#E2E2E2"/>
<circle cx="106" cy="78" r="1" transform="rotate(-90 106 78)" fill="#E2E2E2"/>
<circle cx="106" cy="71" r="1" transform="rotate(-90 106 71)" fill="#E2E2E2"/>
<circle cx="106" cy="64" r="1" transform="rotate(-90 106 64)" fill="#E2E2E2"/>
<circle cx="106" cy="57" r="1" transform="rotate(-90 106 57)" fill="#E2E2E2"/>
<circle cx="106" cy="50" r="1" transform="rotate(-90 106 50)" fill="#E2E2E2"/>
<circle cx="106" cy="43" r="1" transform="rotate(-90 106 43)" fill="#E2E2E2"/>
<circle cx="106" cy="36" r="1" transform="rotate(-90 106 36)" fill="#E2E2E2"/>
<circle cx="106" cy="29" r="1" transform="rotate(-90 106 29)" fill="#E2E2E2"/>
<circle cx="106" cy="22" r="1" transform="rotate(-90 106 22)" fill="#E2E2E2"/>
<circle cx="106" cy="15" r="1" transform="rotate(-90 106 15)" fill="#E2E2E2"/>
<circle cx="106" cy="8" r="1" transform="rotate(-90 106 8)" fill="#E2E2E2"/>
<circle cx="106" cy="1" r="1" transform="rotate(-90 106 1)" fill="#E2E2E2"/>
<circle cx="113" cy="106" r="1" transform="rotate(-90 113 106)" fill="#E2E2E2"/>
<circle cx="113" cy="99" r="1" transform="rotate(-90 113 99)" fill="#E2E2E2"/>
<circle cx="113" cy="92" r="1" transform="rotate(-90 113 92)" fill="#E2E2E2"/>
<circle cx="113" cy="85" r="1" transform="rotate(-90 113 85)" fill="#E2E2E2"/>
<circle cx="113" cy="78" r="1" transform="rotate(-90 113 78)" fill="#E2E2E2"/>
<circle cx="113" cy="71" r="1" transform="rotate(-90 113 71)" fill="#E2E2E2"/>
<circle cx="113" cy="64" r="1" transform="rotate(-90 113 64)" fill="#E2E2E2"/>
<circle cx="113" cy="57" r="1" transform="rotate(-90 113 57)" fill="#E2E2E2"/>
<circle cx="113" cy="50" r="1" transform="rotate(-90 113 50)" fill="#E2E2E2"/>
<circle cx="113" cy="43" r="1" transform="rotate(-90 113 43)" fill="#E2E2E2"/>
<circle cx="113" cy="36" r="1" transform="rotate(-90 113 36)" fill="#E2E2E2"/>
<circle cx="113" cy="29" r="1" transform="rotate(-90 113 29)" fill="#E2E2E2"/>
<circle cx="113" cy="22" r="1" transform="rotate(-90 113 22)" fill="#E2E2E2"/>
<circle cx="113" cy="15" r="1" transform="rotate(-90 113 15)" fill="#E2E2E2"/>
<circle cx="113" cy="8" r="1" transform="rotate(-90 113 8)" fill="#E2E2E2"/>
<circle cx="113" cy="1" r="1" transform="rotate(-90 113 1)" fill="#E2E2E2"/>
<circle cx="120" cy="106" r="1" transform="rotate(-90 120 106)" fill="#E2E2E2"/>
<circle cx="120" cy="99" r="1" transform="rotate(-90 120 99)" fill="#E2E2E2"/>
<circle cx="120" cy="92" r="1" transform="rotate(-90 120 92)" fill="#E2E2E2"/>
<circle cx="120" cy="85" r="1" transform="rotate(-90 120 85)" fill="#E2E2E2"/>
<circle cx="120" cy="78" r="1" transform="rotate(-90 120 78)" fill="#E2E2E2"/>
<circle cx="120" cy="71" r="1" transform="rotate(-90 120 71)" fill="#E2E2E2"/>
<circle cx="120" cy="64" r="1" transform="rotate(-90 120 64)" fill="#E2E2E2"/>
<circle cx="120" cy="57" r="1" transform="rotate(-90 120 57)" fill="#E2E2E2"/>
<circle cx="120" cy="50" r="1" transform="rotate(-90 120 50)" fill="#E2E2E2"/>
<circle cx="120" cy="43" r="1" transform="rotate(-90 120 43)" fill="#E2E2E2"/>
<circle cx="120" cy="36" r="1" transform="rotate(-90 120 36)" fill="#E2E2E2"/>
<circle cx="120" cy="29" r="1" transform="rotate(-90 120 29)" fill="#E2E2E2"/>
<circle cx="120" cy="22" r="1" transform="rotate(-90 120 22)" fill="#E2E2E2"/>
<circle cx="120" cy="15" r="1" transform="rotate(-90 120 15)" fill="#E2E2E2"/>
<circle cx="120" cy="8" r="1" transform="rotate(-90 120 8)" fill="#E2E2E2"/>
<circle cx="120" cy="1" r="1" transform="rotate(-90 120 1)" fill="#E2E2E2"/>
<circle cx="127" cy="106" r="1" transform="rotate(-90 127 106)" fill="#E2E2E2"/>
<circle cx="127" cy="99" r="1" transform="rotate(-90 127 99)" fill="#E2E2E2"/>
<circle cx="127" cy="92" r="1" transform="rotate(-90 127 92)" fill="#E2E2E2"/>
<circle cx="127" cy="85" r="1" transform="rotate(-90 127 85)" fill="#E2E2E2"/>
<circle cx="127" cy="78" r="1" transform="rotate(-90 127 78)" fill="#E2E2E2"/>
<circle cx="127" cy="71" r="1" transform="rotate(-90 127 71)" fill="#E2E2E2"/>
<circle cx="127" cy="64" r="1" transform="rotate(-90 127 64)" fill="#E2E2E2"/>
<circle cx="127" cy="57" r="1" transform="rotate(-90 127 57)" fill="#E2E2E2"/>
<circle cx="127" cy="50" r="1" transform="rotate(-90 127 50)" fill="#E2E2E2"/>
<circle cx="127" cy="43" r="1" transform="rotate(-90 127 43)" fill="#E2E2E2"/>
<circle cx="127" cy="36" r="1" transform="rotate(-90 127 36)" fill="#E2E2E2"/>
<circle cx="127" cy="29" r="1" transform="rotate(-90 127 29)" fill="#E2E2E2"/>
<circle cx="127" cy="22" r="1" transform="rotate(-90 127 22)" fill="#E2E2E2"/>
<circle cx="127" cy="15" r="1" transform="rotate(-90 127 15)" fill="#E2E2E2"/>
<circle cx="127" cy="8" r="1" transform="rotate(-90 127 8)" fill="#E2E2E2"/>
<circle cx="127" cy="1" r="1" transform="rotate(-90 127 1)" fill="#E2E2E2"/>
<circle cx="134" cy="106" r="1" transform="rotate(-90 134 106)" fill="#E2E2E2"/>
<circle cx="134" cy="99" r="1" transform="rotate(-90 134 99)" fill="#E2E2E2"/>
<circle cx="134" cy="92" r="1" transform="rotate(-90 134 92)" fill="#E2E2E2"/>
<circle cx="134" cy="85" r="1" transform="rotate(-90 134 85)" fill="#E2E2E2"/>
<circle cx="134" cy="78" r="1" transform="rotate(-90 134 78)" fill="#E2E2E2"/>
<circle cx="134" cy="71" r="1" transform="rotate(-90 134 71)" fill="#E2E2E2"/>
<circle cx="134" cy="64" r="1" transform="rotate(-90 134 64)" fill="#E2E2E2"/>
<circle cx="134" cy="57" r="1" transform="rotate(-90 134 57)" fill="#E2E2E2"/>
<circle cx="134" cy="50" r="1" transform="rotate(-90 134 50)" fill="#E2E2E2"/>
<circle cx="134" cy="43" r="1" transform="rotate(-90 134 43)" fill="#E2E2E2"/>
<circle cx="134" cy="36" r="1" transform="rotate(-90 134 36)" fill="#E2E2E2"/>
<circle cx="134" cy="29" r="1" transform="rotate(-90 134 29)" fill="#E2E2E2"/>
<circle cx="134" cy="22" r="1" transform="rotate(-90 134 22)" fill="#E2E2E2"/>
<circle cx="134" cy="15" r="1" transform="rotate(-90 134 15)" fill="#E2E2E2"/>
<circle cx="134" cy="8" r="1" transform="rotate(-90 134 8)" fill="#E2E2E2"/>
<circle cx="134" cy="1" r="1" transform="rotate(-90 134 1)" fill="#E2E2E2"/>
<circle cx="141" cy="106" r="1" transform="rotate(-90 141 106)" fill="#E2E2E2"/>
<circle cx="141" cy="99" r="1" transform="rotate(-90 141 99)" fill="#E2E2E2"/>
<circle cx="141" cy="92" r="1" transform="rotate(-90 141 92)" fill="#E2E2E2"/>
<circle cx="141" cy="85" r="1" transform="rotate(-90 141 85)" fill="#E2E2E2"/>
<circle cx="141" cy="78" r="1" transform="rotate(-90 141 78)" fill="#E2E2E2"/>
<circle cx="141" cy="71" r="1" transform="rotate(-90 141 71)" fill="#E2E2E2"/>
<circle cx="141" cy="64" r="1" transform="rotate(-90 141 64)" fill="#E2E2E2"/>
<circle cx="141" cy="57" r="1" transform="rotate(-90 141 57)" fill="#E2E2E2"/>
<circle cx="141" cy="50" r="1" transform="rotate(-90 141 50)" fill="#E2E2E2"/>
<circle cx="141" cy="43" r="1" transform="rotate(-90 141 43)" fill="#E2E2E2"/>
<circle cx="141" cy="36" r="1" transform="rotate(-90 141 36)" fill="#E2E2E2"/>
<circle cx="141" cy="29" r="1" transform="rotate(-90 141 29)" fill="#E2E2E2"/>
<circle cx="141" cy="22" r="1" transform="rotate(-90 141 22)" fill="#E2E2E2"/>
<circle cx="141" cy="15" r="1" transform="rotate(-90 141 15)" fill="#E2E2E2"/>
<circle cx="141" cy="8" r="1" transform="rotate(-90 141 8)" fill="#E2E2E2"/>
<circle cx="141" cy="1" r="1" transform="rotate(-90 141 1)" fill="#E2E2E2"/>
<circle cx="148" cy="106" r="1" transform="rotate(-90 148 106)" fill="#E2E2E2"/>
<circle cx="148" cy="99" r="1" transform="rotate(-90 148 99)" fill="#E2E2E2"/>
<circle cx="148" cy="92" r="1" transform="rotate(-90 148 92)" fill="#E2E2E2"/>
<circle cx="148" cy="85" r="1" transform="rotate(-90 148 85)" fill="#E2E2E2"/>
<circle cx="148" cy="78" r="1" transform="rotate(-90 148 78)" fill="#E2E2E2"/>
<circle cx="148" cy="71" r="1" transform="rotate(-90 148 71)" fill="#E2E2E2"/>
<circle cx="148" cy="64" r="1" transform="rotate(-90 148 64)" fill="#E2E2E2"/>
<circle cx="148" cy="57" r="1" transform="rotate(-90 148 57)" fill="#E2E2E2"/>
<circle cx="148" cy="50" r="1" transform="rotate(-90 148 50)" fill="#E2E2E2"/>
<circle cx="148" cy="43" r="1" transform="rotate(-90 148 43)" fill="#E2E2E2"/>
<circle cx="148" cy="36" r="1" transform="rotate(-90 148 36)" fill="#E2E2E2"/>
<circle cx="148" cy="29" r="1" transform="rotate(-90 148 29)" fill="#E2E2E2"/>
<circle cx="148" cy="22" r="1" transform="rotate(-90 148 22)" fill="#E2E2E2"/>
<circle cx="148" cy="15" r="1" transform="rotate(-90 148 15)" fill="#E2E2E2"/>
<circle cx="148" cy="8" r="1" transform="rotate(-90 148 8)" fill="#E2E2E2"/>
<circle cx="148" cy="1" r="1" transform="rotate(-90 148 1)" fill="#E2E2E2"/>
<circle cx="155" cy="106" r="1" transform="rotate(-90 155 106)" fill="#E2E2E2"/>
<circle cx="155" cy="99" r="1" transform="rotate(-90 155 99)" fill="#E2E2E2"/>
<circle cx="155" cy="92" r="1" transform="rotate(-90 155 92)" fill="#E2E2E2"/>
<circle cx="155" cy="85" r="1" transform="rotate(-90 155 85)" fill="#E2E2E2"/>
<circle cx="155" cy="78" r="1" transform="rotate(-90 155 78)" fill="#E2E2E2"/>
<circle cx="155" cy="71" r="1" transform="rotate(-90 155 71)" fill="#E2E2E2"/>
<circle cx="155" cy="64" r="1" transform="rotate(-90 155 64)" fill="#E2E2E2"/>
<circle cx="155" cy="57" r="1" transform="rotate(-90 155 57)" fill="#E2E2E2"/>
<circle cx="155" cy="50" r="1" transform="rotate(-90 155 50)" fill="#E2E2E2"/>
<circle cx="155" cy="43" r="1" transform="rotate(-90 155 43)" fill="#E2E2E2"/>
<circle cx="155" cy="36" r="1" transform="rotate(-90 155 36)" fill="#E2E2E2"/>
<circle cx="155" cy="29" r="1" transform="rotate(-90 155 29)" fill="#E2E2E2"/>
<circle cx="155" cy="22" r="1" transform="rotate(-90 155 22)" fill="#E2E2E2"/>
<circle cx="155" cy="15" r="1" transform="rotate(-90 155 15)" fill="#E2E2E2"/>
<circle cx="155" cy="8" r="1" transform="rotate(-90 155 8)" fill="#E2E2E2"/>
<circle cx="155" cy="1" r="1" transform="rotate(-90 155 1)" fill="#E2E2E2"/>
<circle cx="162" cy="106" r="1" transform="rotate(-90 162 106)" fill="#E2E2E2"/>
<circle cx="162" cy="99" r="1" transform="rotate(-90 162 99)" fill="#E2E2E2"/>
<circle cx="162" cy="92" r="1" transform="rotate(-90 162 92)" fill="#E2E2E2"/>
<circle cx="162" cy="85" r="1" transform="rotate(-90 162 85)" fill="#E2E2E2"/>
<circle cx="162" cy="78" r="1" transform="rotate(-90 162 78)" fill="#E2E2E2"/>
<circle cx="162" cy="71" r="1" transform="rotate(-90 162 71)" fill="#E2E2E2"/>
<circle cx="162" cy="64" r="1" transform="rotate(-90 162 64)" fill="#E2E2E2"/>
<circle cx="162" cy="57" r="1" transform="rotate(-90 162 57)" fill="#E2E2E2"/>
<circle cx="162" cy="50" r="1" transform="rotate(-90 162 50)" fill="#E2E2E2"/>
<circle cx="162" cy="43" r="1" transform="rotate(-90 162 43)" fill="#E2E2E2"/>
<circle cx="162" cy="36" r="1" transform="rotate(-90 162 36)" fill="#E2E2E2"/>
<circle cx="162" cy="29" r="1" transform="rotate(-90 162 29)" fill="#E2E2E2"/>
<circle cx="162" cy="22" r="1" transform="rotate(-90 162 22)" fill="#E2E2E2"/>
<circle cx="162" cy="15" r="1" transform="rotate(-90 162 15)" fill="#E2E2E2"/>
<circle cx="162" cy="8" r="1" transform="rotate(-90 162 8)" fill="#E2E2E2"/>
<circle cx="162" cy="1" r="1" transform="rotate(-90 162 1)" fill="#E2E2E2"/>
<circle cx="169" cy="106" r="1" transform="rotate(-90 169 106)" fill="#E2E2E2"/>
<circle cx="169" cy="99" r="1" transform="rotate(-90 169 99)" fill="#E2E2E2"/>
<circle cx="169" cy="92" r="1" transform="rotate(-90 169 92)" fill="#E2E2E2"/>
<circle cx="169" cy="85" r="1" transform="rotate(-90 169 85)" fill="#E2E2E2"/>
<circle cx="169" cy="78" r="1" transform="rotate(-90 169 78)" fill="#E2E2E2"/>
<circle cx="169" cy="71" r="1" transform="rotate(-90 169 71)" fill="#E2E2E2"/>
<circle cx="169" cy="64" r="1" transform="rotate(-90 169 64)" fill="#E2E2E2"/>
<circle cx="169" cy="57" r="1" transform="rotate(-90 169 57)" fill="#E2E2E2"/>
<circle cx="169" cy="50" r="1" transform="rotate(-90 169 50)" fill="#E2E2E2"/>
<circle cx="169" cy="43" r="1" transform="rotate(-90 169 43)" fill="#E2E2E2"/>
<circle cx="169" cy="36" r="1" transform="rotate(-90 169 36)" fill="#E2E2E2"/>
<circle cx="169" cy="29" r="1" transform="rotate(-90 169 29)" fill="#E2E2E2"/>
<circle cx="169" cy="22" r="1" transform="rotate(-90 169 22)" fill="#E2E2E2"/>
<circle cx="169" cy="15" r="1" transform="rotate(-90 169 15)" fill="#E2E2E2"/>
<circle cx="169" cy="8" r="1" transform="rotate(-90 169 8)" fill="#E2E2E2"/>
<circle cx="169" cy="1" r="1" transform="rotate(-90 169 1)" fill="#E2E2E2"/>
<circle cx="176" cy="106" r="1" transform="rotate(-90 176 106)" fill="#E2E2E2"/>
<circle cx="176" cy="99" r="1" transform="rotate(-90 176 99)" fill="#E2E2E2"/>
<circle cx="176" cy="92" r="1" transform="rotate(-90 176 92)" fill="#E2E2E2"/>
<circle cx="176" cy="85" r="1" transform="rotate(-90 176 85)" fill="#E2E2E2"/>
<circle cx="176" cy="78" r="1" transform="rotate(-90 176 78)" fill="#E2E2E2"/>
<circle cx="176" cy="71" r="1" transform="rotate(-90 176 71)" fill="#E2E2E2"/>
<circle cx="176" cy="64" r="1" transform="rotate(-90 176 64)" fill="#E2E2E2"/>
<circle cx="176" cy="57" r="1" transform="rotate(-90 176 57)" fill="#E2E2E2"/>
<circle cx="176" cy="50" r="1" transform="rotate(-90 176 50)" fill="#E2E2E2"/>
<circle cx="176" cy="43" r="1" transform="rotate(-90 176 43)" fill="#E2E2E2"/>
<circle cx="176" cy="36" r="1" transform="rotate(-90 176 36)" fill="#E2E2E2"/>
<circle cx="176" cy="29" r="1" transform="rotate(-90 176 29)" fill="#E2E2E2"/>
<circle cx="176" cy="22" r="1" transform="rotate(-90 176 22)" fill="#E2E2E2"/>
<circle cx="176" cy="15" r="1" transform="rotate(-90 176 15)" fill="#E2E2E2"/>
<circle cx="176" cy="8" r="1" transform="rotate(-90 176 8)" fill="#E2E2E2"/>
<circle cx="176" cy="1" r="1" transform="rotate(-90 176 1)" fill="#E2E2E2"/>
<circle cx="183" cy="106" r="1" transform="rotate(-90 183 106)" fill="#E2E2E2"/>
<circle cx="183" cy="99" r="1" transform="rotate(-90 183 99)" fill="#E2E2E2"/>
<circle cx="183" cy="92" r="1" transform="rotate(-90 183 92)" fill="#E2E2E2"/>
<circle cx="183" cy="85" r="1" transform="rotate(-90 183 85)" fill="#E2E2E2"/>
<circle cx="183" cy="78" r="1" transform="rotate(-90 183 78)" fill="#E2E2E2"/>
<circle cx="183" cy="71" r="1" transform="rotate(-90 183 71)" fill="#E2E2E2"/>
<circle cx="183" cy="64" r="1" transform="rotate(-90 183 64)" fill="#E2E2E2"/>
<circle cx="183" cy="57" r="1" transform="rotate(-90 183 57)" fill="#E2E2E2"/>
<circle cx="183" cy="50" r="1" transform="rotate(-90 183 50)" fill="#E2E2E2"/>
<circle cx="183" cy="43" r="1" transform="rotate(-90 183 43)" fill="#E2E2E2"/>
<circle cx="183" cy="36" r="1" transform="rotate(-90 183 36)" fill="#E2E2E2"/>
<circle cx="183" cy="29" r="1" transform="rotate(-90 183 29)" fill="#E2E2E2"/>
<circle cx="183" cy="22" r="1" transform="rotate(-90 183 22)" fill="#E2E2E2"/>
<circle cx="183" cy="15" r="1" transform="rotate(-90 183 15)" fill="#E2E2E2"/>
<circle cx="183" cy="8" r="1" transform="rotate(-90 183 8)" fill="#E2E2E2"/>
<circle cx="183" cy="1" r="1" transform="rotate(-90 183 1)" fill="#E2E2E2"/>
<circle cx="190" cy="106" r="1" transform="rotate(-90 190 106)" fill="#E2E2E2"/>
<circle cx="190" cy="99" r="1" transform="rotate(-90 190 99)" fill="#E2E2E2"/>
<circle cx="190" cy="92" r="1" transform="rotate(-90 190 92)" fill="#E2E2E2"/>
<circle cx="190" cy="85" r="1" transform="rotate(-90 190 85)" fill="#E2E2E2"/>
<circle cx="190" cy="78" r="1" transform="rotate(-90 190 78)" fill="#E2E2E2"/>
<circle cx="190" cy="71" r="1" transform="rotate(-90 190 71)" fill="#E2E2E2"/>
<circle cx="190" cy="64" r="1" transform="rotate(-90 190 64)" fill="#E2E2E2"/>
<circle cx="190" cy="57" r="1" transform="rotate(-90 190 57)" fill="#E2E2E2"/>
<circle cx="190" cy="50" r="1" transform="rotate(-90 190 50)" fill="#E2E2E2"/>
<circle cx="190" cy="43" r="1" transform="rotate(-90 190 43)" fill="#E2E2E2"/>
<circle cx="190" cy="36" r="1" transform="rotate(-90 190 36)" fill="#E2E2E2"/>
<circle cx="190" cy="29" r="1" transform="rotate(-90 190 29)" fill="#E2E2E2"/>
<circle cx="190" cy="22" r="1" transform="rotate(-90 190 22)" fill="#E2E2E2"/>
<circle cx="190" cy="15" r="1" transform="rotate(-90 190 15)" fill="#E2E2E2"/>
<circle cx="190" cy="8" r="1" transform="rotate(-90 190 8)" fill="#E2E2E2"/>
<circle cx="190" cy="1" r="1" transform="rotate(-90 190 1)" fill="#E2E2E2"/>
<circle cx="197" cy="106" r="1" transform="rotate(-90 197 106)" fill="#E2E2E2"/>
<circle cx="197" cy="99" r="1" transform="rotate(-90 197 99)" fill="#E2E2E2"/>
<circle cx="197" cy="92" r="1" transform="rotate(-90 197 92)" fill="#E2E2E2"/>
<circle cx="197" cy="85" r="1" transform="rotate(-90 197 85)" fill="#E2E2E2"/>
<circle cx="197" cy="78" r="1" transform="rotate(-90 197 78)" fill="#E2E2E2"/>
<circle cx="197" cy="71" r="1" transform="rotate(-90 197 71)" fill="#E2E2E2"/>
<circle cx="197" cy="64" r="1" transform="rotate(-90 197 64)" fill="#E2E2E2"/>
<circle cx="197" cy="57" r="1" transform="rotate(-90 197 57)" fill="#E2E2E2"/>
<circle cx="197" cy="50" r="1" transform="rotate(-90 197 50)" fill="#E2E2E2"/>
<circle cx="197" cy="43" r="1" transform="rotate(-90 197 43)" fill="#E2E2E2"/>
<circle cx="197" cy="36" r="1" transform="rotate(-90 197 36)" fill="#E2E2E2"/>
<circle cx="197" cy="29" r="1" transform="rotate(-90 197 29)" fill="#E2E2E2"/>
<circle cx="197" cy="22" r="1" transform="rotate(-90 197 22)" fill="#E2E2E2"/>
<circle cx="197" cy="15" r="1" transform="rotate(-90 197 15)" fill="#E2E2E2"/>
<circle cx="197" cy="8" r="1" transform="rotate(-90 197 8)" fill="#E2E2E2"/>
<circle cx="197" cy="1" r="1" transform="rotate(-90 197 1)" fill="#E2E2E2"/>
<circle cx="204" cy="106" r="1" transform="rotate(-90 204 106)" fill="#E2E2E2"/>
<circle cx="204" cy="99" r="1" transform="rotate(-90 204 99)" fill="#E2E2E2"/>
<circle cx="204" cy="92" r="1" transform="rotate(-90 204 92)" fill="#E2E2E2"/>
<circle cx="204" cy="85" r="1" transform="rotate(-90 204 85)" fill="#E2E2E2"/>
<circle cx="204" cy="78" r="1" transform="rotate(-90 204 78)" fill="#E2E2E2"/>
<circle cx="204" cy="71" r="1" transform="rotate(-90 204 71)" fill="#E2E2E2"/>
<circle cx="204" cy="64" r="1" transform="rotate(-90 204 64)" fill="#E2E2E2"/>
<circle cx="204" cy="57" r="1" transform="rotate(-90 204 57)" fill="#E2E2E2"/>
<circle cx="204" cy="50" r="1" transform="rotate(-90 204 50)" fill="#E2E2E2"/>
<circle cx="204" cy="43" r="1" transform="rotate(-90 204 43)" fill="#E2E2E2"/>
<circle cx="204" cy="36" r="1" transform="rotate(-90 204 36)" fill="#E2E2E2"/>
<circle cx="204" cy="29" r="1" transform="rotate(-90 204 29)" fill="#E2E2E2"/>
<circle cx="204" cy="22" r="1" transform="rotate(-90 204 22)" fill="#E2E2E2"/>
<circle cx="204" cy="15" r="1" transform="rotate(-90 204 15)" fill="#E2E2E2"/>
<circle cx="204" cy="8" r="1" transform="rotate(-90 204 8)" fill="#E2E2E2"/>
<circle cx="204" cy="1" r="1" transform="rotate(-90 204 1)" fill="#E2E2E2"/>
<circle cx="211" cy="106" r="1" transform="rotate(-90 211 106)" fill="#E2E2E2"/>
<circle cx="211" cy="99" r="1" transform="rotate(-90 211 99)" fill="#E2E2E2"/>
<circle cx="211" cy="92" r="1" transform="rotate(-90 211 92)" fill="#E2E2E2"/>
<circle cx="211" cy="85" r="1" transform="rotate(-90 211 85)" fill="#E2E2E2"/>
<circle cx="211" cy="78" r="1" transform="rotate(-90 211 78)" fill="#E2E2E2"/>
<circle cx="211" cy="71" r="1" transform="rotate(-90 211 71)" fill="#E2E2E2"/>
<circle cx="211" cy="64" r="1" transform="rotate(-90 211 64)" fill="#E2E2E2"/>
<circle cx="211" cy="57" r="1" transform="rotate(-90 211 57)" fill="#E2E2E2"/>
<circle cx="211" cy="50" r="1" transform="rotate(-90 211 50)" fill="#E2E2E2"/>
<circle cx="211" cy="43" r="1" transform="rotate(-90 211 43)" fill="#E2E2E2"/>
<circle cx="211" cy="36" r="1" transform="rotate(-90 211 36)" fill="#E2E2E2"/>
<circle cx="211" cy="29" r="1" transform="rotate(-90 211 29)" fill="#E2E2E2"/>
<circle cx="211" cy="22" r="1" transform="rotate(-90 211 22)" fill="#E2E2E2"/>
<circle cx="211" cy="15" r="1" transform="rotate(-90 211 15)" fill="#E2E2E2"/>
<circle cx="211" cy="8" r="1" transform="rotate(-90 211 8)" fill="#E2E2E2"/>
<circle cx="211" cy="1" r="1" transform="rotate(-90 211 1)" fill="#E2E2E2"/>
<circle cx="218" cy="106" r="1" transform="rotate(-90 218 106)" fill="#E2E2E2"/>
<circle cx="218" cy="99" r="1" transform="rotate(-90 218 99)" fill="#E2E2E2"/>
<circle cx="218" cy="92" r="1" transform="rotate(-90 218 92)" fill="#E2E2E2"/>
<circle cx="218" cy="85" r="1" transform="rotate(-90 218 85)" fill="#E2E2E2"/>
<circle cx="218" cy="78" r="1" transform="rotate(-90 218 78)" fill="#E2E2E2"/>
<circle cx="218" cy="71" r="1" transform="rotate(-90 218 71)" fill="#E2E2E2"/>
<circle cx="218" cy="64" r="1" transform="rotate(-90 218 64)" fill="#E2E2E2"/>
<circle cx="218" cy="57" r="1" transform="rotate(-90 218 57)" fill="#E2E2E2"/>
<circle cx="218" cy="50" r="1" transform="rotate(-90 218 50)" fill="#E2E2E2"/>
<circle cx="218" cy="43" r="1" transform="rotate(-90 218 43)" fill="#E2E2E2"/>
<circle cx="218" cy="36" r="1" transform="rotate(-90 218 36)" fill="#E2E2E2"/>
<circle cx="218" cy="29" r="1" transform="rotate(-90 218 29)" fill="#E2E2E2"/>
<circle cx="218" cy="22" r="1" transform="rotate(-90 218 22)" fill="#E2E2E2"/>
<circle cx="218" cy="15" r="1" transform="rotate(-90 218 15)" fill="#E2E2E2"/>
<circle cx="218" cy="8" r="1" transform="rotate(-90 218 8)" fill="#E2E2E2"/>
<circle cx="218" cy="1" r="1" transform="rotate(-90 218 1)" fill="#E2E2E2"/>
</svg>
