<svg width="114" height="110" viewBox="0 0 114 110" fill="none" xmlns="http://www.w3.org/2000/svg">
<path d="M21.3322 29.5011C29.0211 29.5011 35.2541 23.0635 35.2541 15.1223C35.2541 7.18104 29.0211 0.743408 21.3322 0.743408C13.6432 0.743408 7.41016 7.18104 7.41016 15.1223C7.41016 23.0635 13.6432 29.5011 21.3322 29.5011Z" fill="#88181A"/>
<path d="M29.186 64.4037L30.4949 53.3431C31.2089 47.5669 33.9457 42.6511 37.9914 39.21C35.2546 35.646 31.0899 33.4338 26.4492 33.4338H16.097C8.60049 33.4338 2.29395 39.21 1.461 46.9524L0.0331069 59.2421C-0.204876 60.8397 0.866048 62.3145 2.41294 62.6832C8.36251 64.0351 14.7881 64.6495 21.3326 64.6495C24.0694 64.7724 26.6872 64.6495 29.186 64.4037Z" fill="#88181A"/>
<path d="M91.7755 29.5011C99.4644 29.5011 105.698 23.0635 105.698 15.1223C105.698 7.18104 99.4644 0.743408 91.7755 0.743408C84.0866 0.743408 77.8535 7.18104 77.8535 15.1223C77.8535 23.0635 84.0866 29.5011 91.7755 29.5011Z" fill="#88181A"/>
<path d="M111.647 46.8295C110.814 39.087 104.388 33.3109 97.0106 33.3109H86.6584C82.0177 33.3109 77.853 35.523 75.1162 39.087C79.1619 42.5281 82.0177 47.444 82.6127 53.2201L83.9216 64.2807C86.4204 64.5265 89.1572 64.6494 91.775 64.6494C98.4385 64.6494 104.745 63.912 110.695 62.6831C112.242 62.3144 113.193 60.8396 113.074 59.242L111.647 46.8295Z" fill="#88181A"/>
<path d="M77.8539 66.4931L76.426 54.0805C75.593 46.4609 69.2865 40.6848 61.79 40.6848H51.4378C43.9413 40.6848 37.6348 46.4609 36.8018 54.0805L35.3739 66.4931C35.1359 68.0907 36.2069 69.6884 37.7538 69.9342C43.7033 71.286 50.1289 71.9005 56.6734 71.9005C63.3369 71.9005 69.6435 71.1631 75.593 69.9342C77.0209 69.6884 77.9729 68.0907 77.8539 66.4931Z" fill="#88181A"/>
<path d="M56.5538 36.7521C64.2427 36.7521 70.4758 30.3144 70.4758 22.3732C70.4758 14.4319 64.2427 7.99426 56.5538 7.99426C48.8649 7.99426 42.6318 14.4319 42.6318 22.3732C42.6318 30.3144 48.8649 36.7521 56.5538 36.7521Z" fill="#88181A"/>
<path d="M69.6419 87.9997L63.5734 87.5081C62.6214 87.3852 61.6695 86.7707 61.3125 85.7875L58.9327 80.0114C57.9808 77.7993 54.887 77.7993 54.0541 80.0114L51.6742 85.7875C51.3173 86.7707 50.4843 87.3852 49.4134 87.5081L43.4638 87.9997C41.084 88.2455 40.1321 91.195 41.9169 92.7927L46.5576 96.8482C47.2715 97.4627 47.6285 98.5688 47.3905 99.552L45.9626 105.697C45.3677 108.032 47.8665 109.875 49.8894 108.646L55.125 105.328C55.9579 104.837 57.0288 104.837 57.8618 105.328L63.0974 108.646C65.1203 109.875 67.6191 108.032 67.0241 105.697L65.5962 99.552C65.3582 98.5688 65.7152 97.4627 66.4292 96.8482L71.0698 92.7927C72.9737 91.195 72.0218 88.2455 69.6419 87.9997Z" fill="#88181A"/>
<path d="M104.865 80.7488L98.796 80.2572C97.8441 80.1343 96.8922 79.5198 96.5352 78.5367L94.1554 72.7605C93.2034 70.5484 90.1097 70.5484 89.2767 72.7605L86.8969 78.5367C86.5399 79.5198 85.707 80.1343 84.636 80.2572L78.6865 80.7488C76.3066 80.9946 75.3547 83.9441 77.1396 85.5417L81.7802 89.5973C82.4942 90.2118 82.8512 91.3179 82.6132 92.301L81.1853 98.4458C80.5903 100.781 83.0892 102.747 85.112 101.395L90.3476 98.0772C91.1806 97.5856 92.2515 97.5856 93.0844 98.0772L98.3201 101.395C100.343 102.624 102.842 100.781 102.247 98.4458L100.819 92.301C100.581 91.3179 100.938 90.2118 101.652 89.5973L106.292 85.5417C108.196 83.9441 107.244 80.9946 104.865 80.7488Z" fill="#88181A"/>
<path d="M34.4222 80.7488L28.3537 80.2572C27.4017 80.1343 26.4498 79.5198 26.0928 78.5367L23.713 72.7605C22.7611 70.5484 19.6673 70.5484 18.8343 72.7605L16.4545 78.5367C16.0975 79.5198 15.2646 80.1343 14.1937 80.2572L8.24409 80.7488C5.86427 80.9946 4.91233 83.9441 6.69721 85.5417L11.3379 89.5973C12.0518 90.2118 12.4088 91.3179 12.1708 92.301L10.7429 98.4458C10.148 100.781 12.6468 102.747 14.6696 101.395L19.9053 98.0772C20.7382 97.5856 21.8091 97.5856 22.6421 98.0772L27.8777 101.395C29.9005 102.624 32.3994 100.781 31.8044 98.4458L30.3765 92.301C30.1385 91.3179 30.4955 90.2118 31.2094 89.5973L35.8501 85.5417C37.754 83.9441 36.802 80.9946 34.4222 80.7488Z" fill="#88181A"/>
</svg>
