<svg width="26" height="29" viewBox="0 0 26 29" fill="none" xmlns="http://www.w3.org/2000/svg">
<path d="M15.2352 9.64316C15.9103 10.3832 16.5853 11.1232 17.2581 11.8608C18.3368 13.0434 19.4156 14.226 20.4943 15.4086C20.7414 15.6794 20.9862 15.9479 21.2333 16.2187C21.2333 15.2514 21.2333 14.284 21.2333 13.3167C20.5583 14.0567 19.8832 14.7967 19.2104 15.5343C18.1317 16.7169 17.053 17.8995 15.9742 19.0821C15.7272 19.3529 15.4823 19.6214 15.2352 19.8922C14.8955 20.2647 14.6882 20.8161 14.6882 21.3433C14.6882 21.8463 14.8933 22.4485 15.2352 22.7943C15.5926 23.1522 16.0603 23.4182 16.5588 23.394C17.0552 23.3723 17.525 23.1861 17.8824 22.7943C18.5574 22.0543 19.2325 21.3142 19.9053 20.5766C20.984 19.3941 22.0627 18.2115 23.1415 17.0289C23.3885 16.758 23.6334 16.4896 23.8805 16.2187C24.5952 15.4352 24.5974 14.1026 23.8805 13.3167C23.2054 12.5767 22.5304 11.8366 21.8576 11.099C20.7789 9.91644 19.7001 8.73386 18.6214 7.55127C18.3743 7.28041 18.1295 7.01197 17.8824 6.74112C17.5427 6.36869 17.0397 6.14136 16.5588 6.14136C16.1 6.14136 15.5507 6.36627 15.2352 6.74112C14.9088 7.13289 14.6661 7.64559 14.6882 8.19214C14.708 8.73627 14.8757 9.24897 15.2352 9.64316Z" fill="#88181A"/>
<path d="M2.65037 16.8183C3.31216 16.8183 3.96955 16.8183 4.63134 16.8183C6.21524 16.8183 7.79913 16.8183 9.38744 16.8183C11.3066 16.8183 13.2214 16.8183 15.1406 16.8183C16.7995 16.8183 18.454 16.8183 20.1129 16.8183C20.9203 16.8183 21.7255 16.8256 22.5307 16.8183C22.5439 16.8183 22.5528 16.8183 22.566 16.8183C23.0469 16.8183 23.5499 16.591 23.8896 16.2186C24.2139 15.8631 24.4587 15.2803 24.4367 14.7676C24.4168 14.2379 24.258 13.6866 23.8896 13.3165C23.5234 12.949 23.0734 12.7168 22.566 12.7168C21.9042 12.7168 21.2468 12.7168 20.585 12.7168C18.9945 12.7144 17.4106 12.7144 15.8267 12.7144C13.9075 12.7144 11.9927 12.7144 10.0735 12.7144C8.4146 12.7144 6.76012 12.7144 5.10122 12.7144C4.29383 12.7144 3.48864 12.7071 2.68346 12.7144C2.67022 12.7144 2.6614 12.7144 2.64816 12.7144C2.16726 12.7144 1.66429 12.9417 1.32457 13.3141C1.00029 13.6696 0.755428 14.2525 0.777488 14.7651C0.799548 15.2972 0.958379 15.8486 1.32678 16.2186C1.69297 16.5862 2.14299 16.8183 2.65037 16.8183Z" fill="#88181A"/>
</svg>
