<svg width="99" height="110" viewBox="0 0 99 110" fill="none" xmlns="http://www.w3.org/2000/svg">
<path d="M89.1385 49.0474C93.45 49.0474 96.9576 45.4246 96.9576 40.9717C96.9576 40.1408 96.8352 39.339 96.6085 38.584L89.8362 44.1798C89.6362 44.345 89.3898 44.4327 89.1385 44.4327C89.0587 44.4327 88.9783 44.4239 88.899 44.4059C88.5693 44.3312 88.2902 44.1067 88.1397 43.7949L85.9056 39.1803C85.6297 38.6103 85.8533 37.9175 86.4049 37.6325C86.9569 37.3473 87.6278 37.5785 87.9035 38.1484L89.5196 41.4867L95.6143 36.4509C94.2071 34.3074 91.8294 32.896 89.1385 32.896C84.827 32.896 81.3193 36.5187 81.3193 40.9717C81.3193 45.4246 84.827 49.0474 89.1385 49.0474Z" fill="#88181A"/>
<path d="M89.1385 60.5842C84.827 60.5842 81.3193 64.207 81.3193 68.66C81.3193 73.113 84.827 76.7358 89.1385 76.7358C93.45 76.7358 96.9576 73.113 96.9576 68.66C96.9576 64.207 93.45 60.5842 89.1385 60.5842Z" fill="#88181A"/>
<path d="M23.234 19.052C28.1614 19.052 32.1702 14.9117 32.1702 9.82263C32.1702 4.73356 28.1614 0.593262 23.234 0.593262C18.3066 0.593262 14.2979 4.73356 14.2979 9.82263C14.2979 14.9117 18.3066 19.052 23.234 19.052Z" fill="#88181A"/>
<path d="M6.14291 74.4283H9.82908V47.8938C9.82908 47.2568 10.3293 46.7402 10.9461 46.7402C11.5629 46.7402 12.0631 47.2568 12.0631 47.8938V74.4283H34.4036V47.8938C34.4036 47.2568 34.9038 46.7402 35.5206 46.7402C36.1374 46.7402 36.6376 47.2568 36.6376 47.8938V74.4283H40.3238C41.9868 74.4283 43.3397 73.031 43.3397 71.3134V35.7803C43.3397 31.6455 40.0825 28.2814 36.0791 28.2814H10.3876C6.38419 28.2814 3.12695 31.6455 3.12695 35.7803V71.3134C3.12695 73.031 4.47989 74.4283 6.14291 74.4283ZM22.1163 32.8961H24.3504C24.9672 32.8961 25.4674 33.4127 25.4674 34.0497C25.4674 34.6868 24.9672 35.2034 24.3504 35.2034H22.1163C21.4995 35.2034 20.9993 34.6868 20.9993 34.0497C20.9993 33.4127 21.4995 32.8961 22.1163 32.8961ZM22.1163 39.8181H24.3504C24.9672 39.8181 25.4674 40.3347 25.4674 40.9718C25.4674 41.6088 24.9672 42.1255 24.3504 42.1255H22.1163C21.4995 42.1255 20.9993 41.6088 20.9993 40.9718C20.9993 40.3347 21.4995 39.8181 22.1163 39.8181Z" fill="#88181A"/>
<path d="M89.1385 21.3594C93.45 21.3594 96.9576 17.7366 96.9576 13.2836C96.9576 12.4527 96.8352 11.6509 96.6085 10.8959L89.8362 16.4917C89.6365 16.6569 89.3898 16.7446 89.1385 16.7446C89.0587 16.7446 88.9783 16.7359 88.899 16.7179C88.5693 16.6431 88.2902 16.4186 88.1397 16.1069L85.9056 11.4921C85.6297 10.9222 85.8533 10.2293 86.4049 9.94434C86.9569 9.65938 87.6278 9.89058 87.9035 10.4603L89.5196 13.7986L95.6143 8.76273C94.2073 6.61918 91.8294 5.20776 89.1385 5.20776C84.827 5.20776 81.3193 8.83057 81.3193 13.2836C81.3193 17.7366 84.827 21.3594 89.1385 21.3594Z" fill="#88181A"/>
<path d="M83.7765 106.732H34.4042V76.736H12.0638V106.732H1.11702C0.499978 106.732 0 107.248 0 107.885C0 108.523 0.499978 109.039 1.11702 109.039H83.7765C84.3936 109.039 84.8936 108.523 84.8936 107.885C84.8936 107.248 84.3936 106.732 83.7765 106.732ZM24.351 106.732H22.117V82.5044C22.117 81.8671 22.6172 81.3507 23.234 81.3507C23.8508 81.3507 24.351 81.8671 24.351 82.5044V106.732Z" fill="#88181A"/>
<path d="M90.4793 106.731C90.1844 106.731 89.8962 106.853 89.6885 107.068C89.4805 107.283 89.3623 107.58 89.3623 107.885C89.3623 108.189 89.4805 108.487 89.6885 108.702C89.8962 108.916 90.1844 109.038 90.4793 109.038C90.774 109.038 91.0601 108.916 91.2677 108.702C91.4777 108.485 91.5963 108.187 91.5963 107.885C91.5963 107.58 91.4779 107.285 91.2677 107.068C91.0601 106.853 90.774 106.731 90.4793 106.731Z" fill="#88181A"/>
<path d="M97.9698 107.07C97.7621 106.854 97.4739 106.731 97.1815 106.731C96.8866 106.731 96.5984 106.853 96.3906 107.07C96.1826 107.283 96.0645 107.58 96.0645 107.885C96.0645 108.189 96.1826 108.485 96.3906 108.702C96.5984 108.916 96.8866 109.038 97.1815 109.038C97.4761 109.038 97.7623 108.916 97.9698 108.702C98.1778 108.487 98.2985 108.189 98.2985 107.885C98.2985 107.58 98.1778 107.283 97.9698 107.07Z" fill="#88181A"/>
<path d="M50.0428 12.3608H63.4471C64.0641 12.3608 64.5641 11.8442 64.5641 11.2071C64.5641 10.57 64.0641 10.0533 63.4471 10.0533H50.0428C49.4258 10.0533 48.9258 10.57 48.9258 11.2071C48.9258 11.8442 49.4258 12.3608 50.0428 12.3608Z" fill="#88181A"/>
<path d="M50.0428 21.5901H74.6172C75.2343 21.5901 75.7343 21.0735 75.7343 20.4364C75.7343 19.7993 75.2343 19.2827 74.6172 19.2827H50.0428C49.4258 19.2827 48.9258 19.7993 48.9258 20.4364C48.9258 21.0735 49.4258 21.5901 50.0428 21.5901Z" fill="#88181A"/>
<path d="M50.0428 40.0491H63.4471C64.0641 40.0491 64.5641 39.5325 64.5641 38.8954C64.5641 38.2584 64.0641 37.7418 63.4471 37.7418H50.0428C49.4258 37.7418 48.9258 38.2584 48.9258 38.8954C48.9258 39.5325 49.4258 40.0491 50.0428 40.0491Z" fill="#88181A"/>
<path d="M50.0428 49.2784H74.6172C75.2343 49.2784 75.7343 48.7618 75.7343 48.1248C75.7343 47.4877 75.2343 46.9711 74.6172 46.9711H50.0428C49.4258 46.9711 48.9258 47.4877 48.9258 48.1248C48.9258 48.7618 49.4258 49.2784 50.0428 49.2784Z" fill="#88181A"/>
<path d="M50.0428 67.7372H63.4471C64.0641 67.7372 64.5641 67.2208 64.5641 66.5835C64.5641 65.9462 64.0641 65.4298 63.4471 65.4298H50.0428C49.4258 65.4298 48.9258 65.9462 48.9258 66.5835C48.9258 67.2208 49.4258 67.7372 50.0428 67.7372Z" fill="#88181A"/>
<path d="M50.0428 76.9667H74.6172C75.2343 76.9667 75.7343 76.4503 75.7343 75.813C75.7343 75.1758 75.2343 74.6594 74.6172 74.6594H50.0428C49.4258 74.6594 48.9258 75.1758 48.9258 75.813C48.9258 76.4503 49.4258 76.9667 50.0428 76.9667Z" fill="#88181A"/>
</svg>
