<svg width="17" height="18" viewBox="0 0 17 18" fill="none" xmlns="http://www.w3.org/2000/svg">
<path d="M8.5 0.266846C3.79954 0.266846 0 4.19107 0 9.04578C0 13.9005 3.79954 17.8247 8.5 17.8247C13.2005 17.8247 17 13.9005 17 9.04578C17 4.19107 13.2005 0.266846 8.5 0.266846ZM12.6129 7.22526L7.57949 12.4036C7.42281 12.5654 7.22696 12.6464 7.03111 12.6464C6.83525 12.6464 6.61982 12.5654 6.48272 12.4036L3.99539 9.85489C3.68203 9.53125 3.68203 9.02555 3.99539 8.7019C4.30876 8.37825 4.79839 8.37825 5.11175 8.7019L7.03111 10.6842L11.4965 6.07227C11.8099 5.74862 12.2995 5.74862 12.6129 6.07227C12.9067 6.39591 12.9067 6.92184 12.6129 7.22526Z" fill="black"/>
</svg>
